<?xml version="1.0" encoding="UTF-8" standalone="no"?>
<!-- Created with Inkscape (http://www.inkscape.org/) -->

<svg
   xmlns:dc="http://purl.org/dc/elements/1.1/"
   xmlns:cc="http://creativecommons.org/ns#"
   xmlns:rdf="http://www.w3.org/1999/02/22-rdf-syntax-ns#"
   xmlns:svg="http://www.w3.org/2000/svg"
   xmlns="http://www.w3.org/2000/svg"
   xmlns:sodipodi="http://sodipodi.sourceforge.net/DTD/sodipodi-0.dtd"
   xmlns:inkscape="http://www.inkscape.org/namespaces/inkscape"
   width="210mm"
   height="297mm"
   viewBox="0 0 210 297"
   version="1.1"
   id="svg8"
   inkscape:version="0.92.3 (2405546, 2018-03-11)"
   sodipodi:docname="drawing.svg">
  <defs
     id="defs2">
    <filter
       inkscape:label="Colorize"
       inkscape:menu="Color"
       inkscape:menu-tooltip="Light areas turn to black"
       style="color-interpolation-filters:sRGB;"
       id="filter898">
      <feColorMatrix
         type="luminanceToAlpha"
         result="result2"
         id="feColorMatrix890" />
      <feComposite
         in2="SourceGraphic"
         operator="arithmetic"
         in="result2"
         k3="2"
         result="result4"
         id="feComposite892" />
      <feBlend
         in="result4"
         mode="multiply"
         result="result3"
         in2="result2"
         id="feBlend894" />
      <feComposite
         in2="SourceGraphic"
         operator="in"
         in="result3"
         id="feComposite896"
         result="fbSourceGraphic" />
      <feColorMatrix
         result="fbSourceGraphicAlpha"
         in="fbSourceGraphic"
         values="0 0 0 -1 0 0 0 0 -1 0 0 0 0 -1 0 0 0 0 1 0"
         id="feColorMatrix900" />
      <feComposite
         in2="fbSourceGraphic"
         id="feComposite902"
         operator="arithmetic"
         k1="0"
         k2="1"
         result="composite1"
         in="fbSourceGraphic" />
      <feColorMatrix
         id="feColorMatrix904"
         in="composite1"
         values="1"
         type="saturate"
         result="colormatrix1" />
      <feFlood
         id="feFlood906"
         flood-opacity="1"
         flood-color="rgb(158,67,0)"
         result="flood1" />
      <feBlend
         in2="colormatrix1"
         id="feBlend908"
         in="flood1"
         mode="multiply"
         result="blend1" />
      <feBlend
         in2="blend1"
         id="feBlend910"
         mode="screen"
         result="blend2" />
      <feColorMatrix
         id="feColorMatrix912"
         in="blend2"
         values="1"
         type="saturate"
         result="colormatrix2" />
      <feComposite
         in2="fbSourceGraphic"
         id="feComposite914"
         in="colormatrix2"
         operator="in"
         k2="1"
         result="fbSourceGraphic" />
      <feColorMatrix
         result="fbSourceGraphicAlpha"
         in="fbSourceGraphic"
         values="0 0 0 -1 0 0 0 0 -1 0 0 0 0 -1 0 0 0 0 1 0"
         id="feColorMatrix916" />
      <feComposite
         in2="fbSourceGraphic"
         id="feComposite918"
         operator="arithmetic"
         k1="7.1"
         k2="1.1"
         result="composite1"
         in="fbSourceGraphic" />
      <feColorMatrix
         id="feColorMatrix920"
         in="composite1"
         values="1"
         type="saturate"
         result="colormatrix1" />
      <feFlood
         id="feFlood922"
         flood-opacity="1"
         flood-color="rgb(0,0,0)"
         result="flood1" />
      <feBlend
         in2="colormatrix1"
         id="feBlend924"
         in="flood1"
         mode="multiply"
         result="blend1" />
      <feBlend
         in2="blend1"
         id="feBlend926"
         mode="screen"
         result="blend2" />
      <feColorMatrix
         id="feColorMatrix928"
         in="blend2"
         values="1"
         type="saturate"
         result="colormatrix2" />
      <feComposite
         in2="fbSourceGraphic"
         id="feComposite930"
         in="colormatrix2"
         operator="in"
         k2="1"
         result="composite2" />
    </filter>
  </defs>
  <sodipodi:namedview
     id="base"
     pagecolor="#ffffff"
     bordercolor="#666666"
     borderopacity="1.0"
     inkscape:pageopacity="0.0"
     inkscape:pageshadow="2"
     inkscape:zoom="3.959798"
     inkscape:cx="102.89308"
     inkscape:cy="344.90901"
     inkscape:document-units="mm"
     inkscape:current-layer="layer1"
     showgrid="false"
     inkscape:window-width="1853"
     inkscape:window-height="1025"
     inkscape:window-x="67"
     inkscape:window-y="27"
     inkscape:window-maximized="1" />
  <metadata
     id="metadata5">
    <rdf:RDF>
      <cc:Work
         rdf:about="">
        <dc:format>image/svg+xml</dc:format>
        <dc:type
           rdf:resource="http://purl.org/dc/dcmitype/StillImage" />
        <dc:title />
      </cc:Work>
    </rdf:RDF>
  </metadata>
  <g
     inkscape:label="Layer 1"
     inkscape:groupmode="layer"
     id="layer1">
    <rect
       id="rect3713"
       width="30"
       height="30"
       x="68.413689"
       y="192.3988"
       style="fill:#fbecc2;fill-opacity:1;stroke-width:0.7;stroke-miterlimit:4;stroke-dasharray:none;stroke:#a2103b;stroke-opacity:1;stroke-linejoin:round"
       ry="3.9687457"
       inkscape:export-xdpi="96"
       inkscape:export-ydpi="96" />
    <rect
       id="rect3713-3"
       width="30.000002"
       height="30.000002"
       x="24.78199"
       y="192.32516"
       style="fill:#ffffff;fill-opacity:1;stroke:#000000;stroke-width:0.69999999;stroke-linejoin:round;stroke-miterlimit:4;stroke-dasharray:none;stroke-opacity:1"
       ry="3.9687457"
       inkscape:export-xdpi="96"
       inkscape:export-ydpi="96" />
    <path
       style="fill:#ff0000;fill-opacity:1;stroke:#000000;stroke-width:0.08838835;stroke-linejoin:round;stroke-miterlimit:4;stroke-dasharray:none;stroke-opacity:1"
       d="m 43.342492,214.83159 c -0.59999,-0.53806 -1.116203,-0.93064 -1.441913,-1.09656 -0.183819,-0.0936 -0.299839,-0.12796 -0.501128,-0.14824 -0.266669,-0.0269 -0.911387,0.012 -1.175618,0.0709 -0.10622,0.0237 -0.240975,0.0179 -0.501132,-0.0214 -0.482994,-0.0729 -1.106696,-0.0718 -1.322654,0.002 -0.389232,0.13356 -0.916964,0.52369 -1.934941,1.43039 -0.15544,0.13845 -0.232698,0.18671 -0.267411,0.16705 -0.115779,-0.0656 -1.146659,-1.00168 -1.58174,-1.43628 l -0.474591,-0.47407 -0.233998,-0.47852 c -0.451429,-0.92318 -0.486169,-1.1118 -0.460375,-2.49963 0.02921,-1.57171 0.133641,-2.62882 0.377441,-3.82074 0.0642,-0.31388 0.132877,-0.7365 0.15261,-0.93916 0.01974,-0.20265 0.06411,-0.44043 0.09861,-0.52839 0.105757,-0.26957 0.08997,-0.32823 -0.154416,-0.57382 -0.193434,-0.19439 -0.217157,-0.23258 -0.217157,-0.34956 0,-0.2059 -0.06626,-0.24878 -0.349139,-0.22598 -0.281315,0.0227 -1.590413,0.28246 -2.224436,0.44143 -1.145096,0.28713 -1.814558,0.62311 -2.052029,1.02985 -0.290688,0.4979 -0.462868,1.84791 -0.466678,3.65905 l -0.0024,1.08153 -0.211016,-0.22961 c -0.890198,-0.96863 -1.434123,-1.77979 -1.557337,-2.3225 -0.0742,-0.32683 -0.131223,-1.32067 -0.106328,-1.85326 0.04234,-0.90564 0.148254,-1.3203 0.433485,-1.69707 0.753541,-0.99535 1.879608,-1.77154 3.154876,-2.17464 1.320361,-0.41736 1.570492,-0.50346 2.144757,-0.73825 0.82682,-0.33806 1.202148,-0.47399 1.48477,-0.53776 0.279805,-0.0631 1.04697,-0.0691 1.702258,-0.0133 0.985311,0.0839 1.737048,0.0345 2.290186,-0.15061 0.395983,-0.13252 1.146738,-0.51635 1.622131,-0.82932 0.238874,-0.15726 0.450763,-0.28602 0.470863,-0.28612 0.02011,-10e-5 0.245613,0.1358 0.501132,0.30202 0.780272,0.50755 1.544706,0.84674 2.143693,0.9512 0.367575,0.0641 1.098415,0.0634 2.012548,-0.002 0.741101,-0.053 1.040966,-0.0447 1.466898,0.0404 0.290126,0.058 0.401471,0.0979 1.289317,0.46237 0.637447,0.26168 1.263573,0.47967 2.255089,0.78512 1.051015,0.32379 2.038995,0.92383 2.756693,1.67425 0.540515,0.56516 0.680567,0.79791 0.789295,1.31167 0.121986,0.57641 0.115345,2.23453 -0.01106,2.76017 -0.08562,0.35604 -0.308366,0.76015 -0.745818,1.35306 -0.268168,0.36346 -0.963493,1.15259 -1.015579,1.15259 -0.01482,0 -0.01958,-0.34953 -0.01058,-0.77675 0.03341,-1.58456 -0.156271,-3.29189 -0.428099,-3.85341 -0.216292,-0.4468 -0.930719,-0.81682 -2.15338,-1.1153 -0.621456,-0.15171 -1.898031,-0.4028 -2.163548,-0.42554 -0.278233,-0.0238 -0.358807,0.028 -0.358807,0.23076 0,0.11374 -0.02684,0.15835 -0.217157,0.36099 -0.24157,0.25721 -0.255108,0.30661 -0.149479,0.54541 0.04307,0.0974 0.08032,0.29025 0.102449,0.53043 0.01913,0.20759 0.0774,0.5804 0.129514,0.82846 0.273,1.29955 0.404556,2.66531 0.411911,4.27631 0.0049,1.06442 -0.04634,1.30446 -0.46016,2.15721 -0.195625,0.40312 -0.238025,0.46402 -0.552085,0.79296 -0.310534,0.32525 -0.890492,0.86498 -1.536785,1.43019 l -0.250566,0.21914 z"
       id="path955"
       inkscape:connector-curvature="0"
       inkscape:export-xdpi="96"
       inkscape:export-ydpi="96" />
  </g>
</svg>
